<svg version="1.1" id="instagram" xmlns="http://www.w3.org/2000/svg" xmlns:xlink="http://www.w3.org/1999/xlink" x="0px" y="0px"
	 width="16px" height="16px" viewBox="-263.5 438.5 16 16" enable-background="new -263.5 438.5 16 16" xml:space="preserve">
<path fill="#828282" d="M-249.147,439.286h-12.705c-0.476,0-0.861,0.386-0.861,0.861v12.704c0,0.477,0.385,0.861,0.861,0.861h12.705
	c0.476,0,0.861-0.385,0.861-0.861v-12.704C-248.286,439.672-248.672,439.286-249.147,439.286z M-257.341,444.829
	c0.451-0.511,1.108-0.835,1.841-0.835s1.39,0.324,1.841,0.835c0.382,0.435,0.617,1,0.617,1.622c0,1.354-1.103,2.457-2.458,2.457
	c-1.355,0-2.458-1.103-2.458-2.457C-257.958,445.829-257.724,445.264-257.341,444.829z M-249.805,452.195h-11.39v-7.366h2.068
	c-0.223,0.496-0.35,1.044-0.35,1.622c0,2.193,1.785,3.977,3.977,3.977c2.192,0,3.976-1.783,3.976-3.977
	c0-0.578-0.127-1.126-0.35-1.622h2.068V452.195z M-249.805,442.403c0,0.383-0.31,0.693-0.693,0.693h-0.905
	c-0.383,0-0.693-0.311-0.693-0.693v-0.906c0-0.382,0.31-0.692,0.693-0.692h0.905c0.383,0,0.693,0.311,0.693,0.692V442.403z"/>
</svg>
