<svg viewBox="0 0 44 55" x="0px" y="0px"><g stroke="none" stroke-width="1" fill="none" fill-rule="evenodd"><g transform="translate(-449.000000, -625.000000)"><path d="M485.063799,638.764628 C487.527054,641.84397 489,645.749973 489,650 C489,659.941125 480.941125,668 471,668 C461.058875,668 453,659.941125 453,650 C453,640.058875 461.058875,632 471,632 C475.250027,632 479.15603,633.472946 482.235372,635.936201 L483.294369,634.877204 C484.071941,634.099632 485.340272,634.097631 486.12132,634.87868 C486.907814,635.665174 486.90303,636.925398 486.122796,637.705631 L485.063799,638.764628 L485.063799,638.764628 Z M467.00853,626 C465.89925,626 465,626.88773 465,628 C465,629.104569 465.90195,630 467.00853,630 L474.99147,630 C476.10075,630 477,629.11227 477,628 C477,626.895431 476.09805,626 474.99147,626 L467.00853,626 Z M471,664 C478.731986,664 485,657.731986 485,650 C485,642.268014 478.731986,636 471,636 C463.268014,636 457,642.268014 457,650 C457,657.731986 463.268014,664 471,664 Z M471,640 C469.895431,640 469,640.90195 469,642.00853 L469,649.99147 C469,651.10075 469.88773,652 471,652 C472.104569,652 473,651.09805 473,649.99147 L473,642.00853 C473,640.89925 472.11227,640 471,640 Z" fill="#000000"/></g></g></svg>
