<svg version="1.1" id="spotify" xmlns="http://www.w3.org/2000/svg" xmlns:xlink="http://www.w3.org/1999/xlink" x="0px" y="0px"
	 width="16px" height="16px" viewBox="0 0 16 16" enable-background="new 0 0 16 16" xml:space="preserve">
<circle fill-rule="evenodd" clip-rule="evenodd" fill="#828282" cx="7.993" cy="8.05" r="7.798"/>
<path fill-rule="evenodd" clip-rule="evenodd" fill="#FFFFFF" d="M13.692,6.521c-0.002,0.565-0.594,0.91-1.09,0.63
	c-0.336-0.19-0.681-0.363-1.04-0.506c-0.712-0.286-1.451-0.478-2.205-0.611C8.833,5.941,8.303,5.88,7.771,5.848
	C7.218,5.814,6.664,5.811,6.11,5.839C5.475,5.873,4.845,5.942,4.224,6.076c-0.229,0.05-0.456,0.112-0.683,0.173
	C3.402,6.286,3.265,6.291,3.126,6.25C2.823,6.162,2.614,5.89,2.605,5.572C2.596,5.263,2.787,4.975,3.086,4.877
	c0.219-0.073,0.444-0.129,0.67-0.182c0.557-0.129,1.123-0.208,1.692-0.26C6.054,4.379,6.66,4.362,7.267,4.379
	c1.495,0.042,2.96,0.261,4.378,0.751c0.579,0.199,1.135,0.447,1.664,0.756c0.188,0.11,0.315,0.265,0.363,0.479
	C13.683,6.417,13.686,6.469,13.692,6.521z"/>
<path fill-rule="evenodd" clip-rule="evenodd" fill="#FFFFFF" d="M6.633,8.263C5.742,8.267,4.83,8.377,3.939,8.642
	C3.794,8.685,3.648,8.688,3.506,8.63C3.274,8.537,3.123,8.304,3.131,8.059C3.14,7.803,3.296,7.58,3.543,7.504
	c0.251-0.077,0.506-0.143,0.763-0.201c0.631-0.14,1.271-0.214,1.918-0.239c1.391-0.053,2.75,0.127,4.076,0.552
	c0.67,0.215,1.312,0.496,1.917,0.856c0.03,0.018,0.06,0.036,0.09,0.055c0.316,0.193,0.354,0.582,0.203,0.829
	c-0.172,0.283-0.531,0.372-0.828,0.204c-0.168-0.095-0.334-0.194-0.506-0.281c-0.787-0.401-1.622-0.661-2.488-0.825
	C8.021,8.328,7.349,8.266,6.633,8.263z"/>
<path fill-rule="evenodd" clip-rule="evenodd" fill="#FFFFFF" d="M6.772,9.584c1.025,0.011,2.028,0.149,3.002,0.478
	c0.537,0.181,1.05,0.415,1.537,0.705c0.042,0.025,0.085,0.05,0.124,0.08c0.197,0.149,0.248,0.419,0.122,0.632
	c-0.123,0.206-0.383,0.289-0.605,0.191c-0.045-0.02-0.087-0.046-0.129-0.071c-0.825-0.489-1.716-0.792-2.663-0.938
	c-0.581-0.088-1.165-0.12-1.751-0.096c-0.759,0.03-1.508,0.135-2.25,0.299c-0.075,0.017-0.152,0.032-0.228,0.033
	c-0.229,0.002-0.423-0.16-0.463-0.381c-0.042-0.234,0.073-0.453,0.288-0.539c0.045-0.018,0.094-0.03,0.141-0.041
	C4.502,9.8,5.114,9.697,5.733,9.645C6.079,9.615,6.426,9.604,6.772,9.584z"/>
</svg>
