<svg xmlns="http://www.w3.org/2000/svg" xmlns:xlink="http://www.w3.org/1999/xlink" version="1.1" x="0px" y="0px" viewBox="0 0 100 125" enable-background="new 0 0 100 100" xml:space="preserve"><g><path d="M49.965,40.528c2.555,0.022,4.664-1.994,4.673-4.478c0.019-2.506-2.038-4.545-4.603-4.567   c-2.555-0.022-4.655,1.994-4.673,4.491C45.344,38.467,47.4,40.506,49.965,40.528z"/><g><path d="M67.511,94H32.489c-1.104,0-2-0.896-2-2V42.269c0-0.382,0.109-0.755,0.314-1.077l10.514-16.456    c0.367-0.575,1.003-0.923,1.686-0.923h14.003c0.683,0,1.318,0.349,1.686,0.924l10.505,16.456c0.205,0.321,0.314,0.695,0.314,1.076    V92C69.511,93.104,68.615,94,67.511,94z M34.489,90h31.021V42.853l-9.601-15.04H44.099l-9.609,15.04V90z"/></g><g><path d="M50,36.114c-1.104,0-2-0.896-2-2s0.896-2,2-2c6.099,0,11.06-4.961,11.06-11.06C61.06,14.959,56.095,10,49.991,10    c-6.094,0-11.051,4.959-11.051,11.055c0,1.104-0.896,2-2,2s-2-0.896-2-2C34.94,12.754,41.692,6,49.991,6    C58.3,6,65.06,12.754,65.06,21.055C65.06,29.358,58.304,36.114,50,36.114z"/></g><rect x="32.489" y="81.14" width="35.021" height="10.86"/></g><text x="0" y="115" fill="#000000" font-size="5px" font-weight="bold" font-family="'Helvetica Neue', Helvetica, Arial-Unicode, Arial, Sans-serif">Created by factor[e] design initiative</text><text x="0" y="120" fill="#000000" font-size="5px" font-weight="bold" font-family="'Helvetica Neue', Helvetica, Arial-Unicode, Arial, Sans-serif">from the Noun Project</text></svg>