<svg class="icon" x="0px" y="0px" viewBox="0 0 100 100" enable-background="new 0 0 100 100" xml:space="preserve"><polygon points="35.955,27.13 37.936,27.202 38.199,19.865 15.707,19.865 15.707,45.687 89.458,45.687 89.458,25.351 35.963,25.148   35.955,27.13 37.936,27.202 35.955,27.13 35.947,29.113 85.493,29.301 85.493,41.722 19.671,41.722 19.671,23.83 34.091,23.83   33.975,27.059 33.901,29.105 35.947,29.113 "/><polygon points="83.511,77.356 17.689,77.356 5.794,43.705 95.405,43.705 "/><polygon points="83.511,77.356 83.511,75.374 19.09,75.374 8.597,45.687 92.603,45.687 81.641,76.694 83.511,77.356 83.511,75.374   83.511,77.356 85.381,78.019 98.209,41.722 2.991,41.722 16.287,79.339 84.912,79.339 85.381,78.019 "/></svg>
